# AST/ASF file generated using VICON BodyLanguage
# -----------------------------------------------
:version 1.10
:name VICON
:units
  mass 1.0
  length 0.45
  angle deg
:documentation
   .ast/.asf automatically generated from VICON data using
   VICON BodyBuilder and BodyLanguage model FoxedUp or BRILLIANT.MOD
:root
   order TX TY TZ RX RY RZ
   axis XYZ
   position 0 0 0  
   orientation 0 0 0 
:bonedata
  begin
     id 1 
     name lhipjoint
     direction 0.625129 -0.738222 0.253461 
     length 2.5165 
     axis 0 0 0  XYZ
  end
  begin
     id 2 
     name lfemur
     direction 0.34202 -0.939693 0  
     length 7.54288  
     axis 0 0 20  XYZ
    dof rx ry rz
    limits (-160.0 20.0)
           (-70.0 70.0)
           (-60.0 70.0)
  end
  begin
     id 3 
     name ltibia
     direction 0.34202 -0.939693 0   
     length 7.71864   
     axis 0 0 20   XYZ
    dof rx
    limits (-10.0 170.0)
  end
  begin
     id 4 
     name lfoot
     direction 0.0772037 -0.212115 0.97419   
     length 2.18429   
     axis -90 7.62852e-016 20   XYZ
    dof rx rz
    limits (-45.0 90.0)
           (-70.0 20.0)
  end
  begin
     id 5 
     name ltoes
     direction 1.53513e-011 -4.21834e-011 1   
     length 1.09718   
     axis -90 7.62852e-016 20   XYZ
    dof rx
    limits (-90.0 20.0)
  end
  begin
     id 6 
     name rhipjoint
     direction -0.621946 -0.740623 0.254285   
     length 2.50835  
     axis 0 0 0  XYZ 
  end
  begin
     id 7 
     name rfemur
     direction -0.34202 -0.939693 0   
     length 7.43366   
     axis 0 0 -20   XYZ
    dof rx ry rz
    limits (-160.0 20.0)
           (-70.0 70.0)
           (-70.0 60.0)
  end
  begin
     id 8 
     name rtibia
     direction -0.34202 -0.939693 0   
     length 7.77122   
     axis 0 0 -20   XYZ
    dof rx
    limits (-10.0 170.0)
 end
 begin
     id 9 
     name rfoot
     direction -0.082694 -0.2272 0.970331   
     length 2.2293  
     axis -90 -7.62852e-016 -20   XYZ
    dof rx rz
    limits (-45.0 90.0)
           (-20.0 70.0)
  end
  begin
     id 10 
     name rtoes
     direction -1.53565e-011 -4.21695e-011 1   
     length 1.1178   
     axis -90 -7.62852e-016 -20   XYZ
    dof rx
    limits (-90.0 20.0)
  end
  begin
     id 11 
     name lowerback
     direction -0.000695208 0.988391 -0.151929   
     length 1.95077   
     axis 0 0 0   XYZ
    dof rx ry rz
    limits (-20.0 45.0)
           (-30.0 30.0)
           (-30.0 30.0)
  end
  begin
     id 12 
     name upperback
     direction -0.00268925 0.999885 -0.0149203   
     length 1.96246   
     axis 0 0 0   XYZ
    dof rx ry rz
    limits (-20.0 45.0)
           (-30.0 30.0)
           (-30.0 30.0)
  end
  begin
     id 13 
     name thorax
     direction -0.000848408 0.998481 0.0550912   
     length 2.00867   
     axis 0 0 0   XYZ
    dof rx ry rz
    limits (-20.0 45.0)
           (-30.0 30.0)
           (-30.0 30.0)
  end
  begin
     id 14 
     name lowerneck
     direction -0.00577709 0.998999 0.0443608   
     length 1.75762   
     axis 0 0 0   XYZ
    dof rx ry rz
    limits (-20.0 45.0)
           (-30.0 30.0)
           (-30.0 30.0)
  end
  begin
     id 15 
     name upperneck
     direction 0.0320945 0.999136 0.0264105   
     length 1.72601   
     axis 0 0 0   XYZ
    dof rx ry rz
    limits (-20.0 45.0)
           (-30.0 30.0)
           (-30.0 30.0)
  end
  begin
     id 16
     name head
     direction 0.0120552 0.999916 0.00480151  
     length 1.79973  
     axis 0 0 0   XYZ
    dof rx ry rz
    limits (-20.0 45.0)
           (-30.0 30.0)
           (-30.0 30.0)
  end
  begin
     id 17 
     name lclavicle
     direction 0.909 0.371533 -0.188897  
     length 3.47956  
     axis 0 0 0   XYZ
    dof ry rz
    limits (-20.0 10.0)
           (0.0 20.0)
  end
  begin
     id 18 
     name lhumerus
     direction 1 -4.48963e-011 -6.48352e-028   
     length 5.52302   
     axis 180 -30 -90   XYZ
    dof rx ry rz
    limits (-60.0 90.0)
           (-90.0 90.0)
           (-90.0 90.0)
  end
  begin
     id 19
     name lradius
     direction 1 -4.48968e-011 -4.78536e-027   
     length 3.58675   
     axis 180 -30 -90   XYZ
    dof rx
    limits (-10.0 170.0)
  end
  begin
     id 20
     name lwrist
     direction 1 -4.48942e-011 -9.9435e-027   
     length 1.79337   
     axis 8.54312e-015 90 90   XYZ
    dof ry
    limits (-180.0 0.0)
 end
  begin
     id 21 
     name lhand
     direction 1 -4.4904e-011 -1.9887e-026   
     length 0.536412   
     axis 1.26896e-014 90 90   XYZ
    dof rx rz
    limits (-90.0 90.0)
           (-45.0 45.0)
  end
  begin
     id 22 
     name lfingers
     direction 1 -4.48893e-011 -3.9774e-026   
     length 0.432469   
     axis 2.53792e-014 90 90   XYZ
    dof rx
    limits (0.0 90.0)
  end
  begin
     id 23
     name lthumb
     direction 0.707107 -6.34934e-011 0.707107   
     length 0.620942   
     axis -90 45 2.85299e-015   XYZ
    dof rx rz
    limits (-45.0 45.0)
           (-45.0 45.0)
  end
  begin
     id 24 
     name rclavicle
     direction -0.89595 0.416672 -0.153813   
     length 3.44099  
     axis 0 0 0   XYZ 
    dof ry rz
    limits (-10.0 20.0)
           (-20.0 0.0)
  end
  begin
     id 25 
     name rhumerus
     direction -1 -4.48952e-011 5.57804e-028  
     length 5.8478   
     axis 180 30 90   XYZ
    dof rx ry rz
    limits (-90.0 60.0)
           (-90.0 90.0)
           (-90.0 90.0)
  end
  begin
     id 26 
     name rradius
     direction -1 -4.48967e-011 -7.93646e-027   
     length 3.62717   
     axis 180 30 90   XYZ
    dof rx
    limits (-10.0 170.0)
  end
  begin
     id 27 
     name rwrist
     direction -1 -4.49008e-011 -9.9435e-027   
     length 1.81359   
     axis 8.54312e-015 -90 -90   XYZ
    dof ry
    limits (-180.0 0.0)
  end
  begin
     id 28
     name rhand
     direction -1 -4.48812e-011 -1.9887e-026   
     length 0.650516   
     axis 1.26896e-014 -90 -90   XYZ
    dof rx rz
    limits (-90.0 90.0)
           (-45.0 45.0)
  end
  begin
     id 29
     name rfingers
     direction -1 -4.49228e-011 -3.9774e-026   
     length 0.524463   
     axis 2.53792e-014 -90 -90   XYZ
    dof rx
    limits (0.0 90.0)
  end
  begin
     id 30
     name rthumb
     direction -0.707107 -6.34912e-011 0.707107   
     length 0.753027   
     axis -90 -45 -2.85299e-015   XYZ
    dof rx rz
    limits (-45.0 45.0)
           (-45.0 45.0)
  end
:hierarchy
  begin
    root lhipjoint rhipjoint lowerback
    lhipjoint lfemur
    lfemur ltibia
    ltibia lfoot
    lfoot ltoes
    rhipjoint rfemur
    rfemur rtibia
    rtibia rfoot
    rfoot rtoes
    lowerback upperback
    upperback thorax
    thorax lowerneck lclavicle rclavicle
    lowerneck upperneck
    upperneck head
    lclavicle lhumerus
    lhumerus lradius
    lradius lwrist
    lwrist lhand lthumb
    lhand lfingers
    rclavicle rhumerus
    rhumerus rradius
    rradius rwrist
    rwrist rhand rthumb
    rhand rfingers
  end

#!OML:ASF F:\VICON\USERDATA\INSTALL\rory3\rory3.ASF
:FULLY-SPECIFIED
:DEGREES
1859
root -7.90477 17.7523 -25.5596 -185.393 204.579 -178.676
lowerback 6.02057 -6.79645 0.452397
upperback 2.56422 -9.04837 -0.979205
thorax -0.925009 -4.52238 -0.63376
lowerneck -12.7959 -4.00816 8.29045
upperneck 21.2733 -6.41582 -5.07018
head 8.26318 -2.95797 -3.76185
rclavicle 1.1215e-014 -1.93194e-015
rhumerus -40.9747 -19.5999 -63.6928
rradius 22.4982
rwrist 17.4347
rhand -22.3025 12.8348
rfingers 7.12502
rthumb 4.11663 -17.1052
lclavicle 1.1215e-014 -1.93194e-015
lhumerus -4.88128 -0.237125 80.3293
lradius 19.7426
lwrist 1.63998
lhand -28.2831 28.9692
lfingers 7.12502
lthumb -1.65932 -301.058
rfemur -14.9501 9.09445 26.0581
rtibia 24.9913
rfoot -2.04493 -2.13808
rtoes 16.8303
lfemur 5.1141 10.552 -22.4744
ltibia 45.9676
lfoot 21.4706 -19.6819
ltoes 4.15437
1860
root -7.88609 17.7249 -25.7185 -185.064 204.55 -178.822
lowerback 6.12053 -7.4016 -0.388439
upperback 2.1141 -9.88615 0.0222487
thorax -1.1399 -4.9444 0.917482
lowerneck -12.0365 -3.64972 6.05505
upperneck 21.1091 -5.44616 -4.80209
head 8.21203 -2.64938 -3.18767
rclavicle 4.23287e-014 -5.96354e-016
rhumerus -39.8172 -16.6869 -63.8944
rradius 22.644
rwrist 16.882
rhand -22.2886 12.7485
rfingers 7.12502
rthumb 4.13008 -17.1912
lclavicle 4.23287e-014 -5.96354e-016
lhumerus -5.26844 2.16074 81.1023
lradius 20.2197
lwrist 0.907475
lhand -30.1059 25.8834
lfingers 7.12502
lthumb -3.41974 -304.164
rfemur -15.7448 8.84512 26.2516
rtibia 24.7287
rfoot -1.52122 -1.87255
rtoes 17.4723
lfemur 5.89144 9.73066 -23.0095
ltibia 44.0971
lfoot 21.5979 -18.9817
ltoes 7.10922
1861
root -7.86599 17.6964 -25.8868 -184.786 204.462 -179.186
lowerback 6.14989 -6.94976 -0.134952
upperback 2.32197 -9.27362 -0.237203
thorax -1.03443 -4.63828 0.471039
lowerneck -12.5552 -4.28334 6.77718
upperneck 21.2808 -6.56956 -4.53593
head 8.28386 -3.09348 -3.34395
rclavicle 8.42288e-014 -1.88845e-015
rhumerus -40.3621 -17.6749 -64.3861
rradius 23.2293
rwrist 15.8809
rhand -21.6922 13.6661
rfingers 7.12502
rthumb 4.70599 -16.2616
lclavicle 8.42288e-014 -1.88845e-015
lhumerus -4.09918 -0.528861 81.1289
lradius 20.5587
lwrist 1.23449
lhand -33.7198 19.5977
lfingers 7.12502
lthumb -6.90906 -310.535
rfemur -16.4513 8.78833 26.6399
rtibia 24.6721
rfoot -1.02812 -1.74106
rtoes 19.3156
lfemur 6.78285 8.85958 -23.2609
ltibia 42.1477
lfoot 20.1845 -18.3861
ltoes 7.78122
1862
root -7.84401 17.6613 -26.0601 -184.622 204.318 -179.259
lowerback 6.02802 -7.46051 -0.223162
upperback 2.21872 -9.95674 -0.127068
thorax -1.03446 -4.97983 0.66454
lowerneck -11.6304 -4.14194 5.42528
upperneck 20.8861 -6.25365 -3.51599
head 8.08965 -2.95416 -2.7128
rclavicle -1.04896e-013 6.75868e-015
rhumerus -39.5996 -15.5679 -65.7477
rradius 23.4935
rwrist 14.5853
rhand -20.4217 16.1144
rfingers 7.12502
rthumb 5.93266 -13.7825
lclavicle -1.04896e-013 6.75868e-015
lhumerus -4.15949 -0.195294 80.7603
lradius 21.1364
lwrist 0.823628
lhand -30.9666 24.247
lfingers 7.12502
lthumb -4.25091 -305.816
rfemur -17.2653 8.90073 26.7029
rtibia 24.7437
rfoot -0.628986 -1.84011
rtoes 20.0162
lfemur 7.6581 7.93319 -23.7843
ltibia 40.1611
lfoot 17.7564 -18.0075
ltoes 6.49144
1863
root -7.82151 17.6168 -26.2405 -184.35 204.103 -179.344
lowerback 5.97619 -7.76057 -0.353464
upperback 2.2745 -10.3634 -0.128451
thorax -0.921427 -5.18448 0.744133
lowerneck -11.5418 -4.18912 4.78315
upperneck 20.682 -6.35919 -2.68517
head 8.05611 -2.97317 -2.33581
rclavicle -2.56923e-013 1.71949e-014
rhumerus -38.8411 -14.8696 -66.778
rradius 23.5311
rwrist 14.1777
rhand -21.453 14.5753
rfingers 7.12502
rthumb 4.93696 -15.3472
lclavicle -2.56923e-013 1.71949e-014
lhumerus -3.74711 -0.970287 80.3659
lradius 21.7297
lwrist 0.541813
lhand -30.3099 26.6033
lfingers 7.12502
lthumb -3.61677 -303.448
rfemur -18.246 8.97842 26.7532
rtibia 24.8226
rfoot -0.156092 -1.99036
rtoes 20.3713
lfemur 8.41656 6.84215 -24.3192
ltibia 38.2702
lfoot 14.6319 -18.5752
ltoes 3.07629
1864
root -7.79651 17.5669 -26.4263 -184.033 203.863 -179.554
lowerback 6.48635 -7.77912 -0.926579
upperback 2.03857 -10.4175 0.274406
thorax -1.26802 -5.2095 1.54369
lowerneck -11.2565 -4.54337 4.03989
upperneck 20.6684 -6.79239 -2.21143
head 8.02835 -3.19009 -2.09078
rclavicle -5.62747e-014 1.09332e-014
rhumerus -38.6664 -14.3158 -66.8872
rradius 23.7449
rwrist 13.8445
rhand -21.511 14.4362
rfingers 7.12502
rthumb 4.88098 -15.4876
lclavicle -5.62747e-014 1.09332e-014
lhumerus -3.4214 -2.15848 80.6729
lradius 22.2006
lwrist 0.788105
lhand -31.3877 25.8334
lfingers 7.12502
lthumb -4.65754 -304.238
rfemur -19.1691 8.77068 26.9623
rtibia 24.7631
rfoot 0.387322 -1.90863
rtoes 21.8713
lfemur 9.18413 5.7892 -24.666
ltibia 36.5706
lfoot 10.4544 -18.4775
ltoes 6.0971
1865
root -7.77105 17.5403 -26.6048 -183.719 203.836 -179.621
lowerback 6.87378 -7.68881 -1.52405
upperback 1.80362 -10.3354 0.551667
thorax -1.56988 -5.16303 2.20504
lowerneck -11.5505 -4.68005 3.87311
upperneck 21.0025 -7.04523 -1.88443
head 8.20585 -3.28257 -2.00026
rclavicle 2.01891e-014 5.96354e-016
rhumerus -38.7072 -13.7085 -67.1061
rradius 24.143
rwrist 13.3189
rhand -21.0473 15.0129
rfingers 7.12502
rthumb 5.3287 -14.9001
lclavicle 2.01891e-014 5.96354e-016
lhumerus -3.00583 -3.25095 80.8254
lradius 22.6174
lwrist 1.50937
lhand -32.0868 24.8232
lfingers 7.12502
lthumb -5.33256 -305.264
rfemur -20.0144 8.71573 27.0259
rtibia 24.508
rfoot 1.03083 -1.66081
rtoes 23.6503
lfemur 9.78321 4.98529 -25.1514
ltibia 35.0688
lfoot 6.23559 -18.1756
ltoes -2.01893
1866
root -7.74763 17.5367 -26.7767 -183.464 203.865 -179.554
lowerback 6.92147 -7.63034 -1.89309
upperback 1.79761 -10.2849 0.481796
thorax -1.55311 -5.13735 2.33143
lowerneck -12.1977 -4.71818 4.0932
upperneck 21.3399 -7.31852 -1.29333
head 8.44925 -3.3221 -1.89992
rclavicle 3.51538e-014 -1.5207e-014
rhumerus -38.6683 -13.9725 -67.4518
rradius 24.4115
rwrist 13.6196
rhand -20.1945 16.049
rfingers 7.12502
rthumb 6.15202 -13.8417
lclavicle 3.51538e-014 -1.5207e-014
lhumerus -2.37038 -4.45478 80.5146
lradius 23.0429
lwrist 2.00737
lhand -32.7057 24.3277
lfingers 7.12502
lthumb -5.93013 -305.775
rfemur -20.7204 8.69016 26.9324
rtibia 24.0798
rfoot 1.63662 -1.28802
rtoes 24.3872
lfemur 10.184 4.38105 -25.7166
ltibia 33.7149
lfoot 2.16608 -17.1403
ltoes -7.60509
1867
root -7.72413 17.5229 -26.9549 -183.339 203.654 -179.252
lowerback 6.94713 -7.57357 -2.46709
upperback 1.8977 -10.2524 0.284439
thorax -1.4018 -5.12415 2.42512
lowerneck -11.4462 -5.40143 3.55048
upperneck 20.933 -8.34523 -0.231241
head 8.22373 -3.75932 -1.52818
rclavicle -4.45091e-015 -7.1811e-015
rhumerus -38.5448 -14.7589 -67.742
rradius 24.5924
rwrist 14.1511
rhand -19.3269 16.9087
rfingers 7.12502
rthumb 6.98958 -12.9559
lclavicle -4.45091e-015 -7.1811e-015
lhumerus -1.80009 -5.55078 80.2722
lradius 23.6303
lwrist 1.6327
lhand -34.0089 23.8249
lfingers 7.12502
lthumb -7.18812 -306.317
rfemur -21.2967 8.51713 26.5789
rtibia 23.4197
rfoot 2.25617 -1.02089
rtoes 23.2863
lfemur 10.3158 3.85277 -26.3935
ltibia 32.4466
lfoot -0.763262 -16.2859
ltoes -6.65467
1868
root -7.70147 17.4994 -27.1362 -183.149 203.587 -179.035
lowerback 6.81957 -7.48514 -2.89006
upperback 2.03816 -10.1625 0.0465704
thorax -1.1619 -5.08534 2.37021
lowerneck -9.44775 -6.42912 2.49352
upperneck 19.9075 -9.7652 1.26422
head 7.63399 -4.42412 -0.907338
rclavicle -1.69181e-013 1.21259e-014
rhumerus -38.3727 -15.395 -68.3115
rradius 24.7825
rwrist 14.4181
rhand -19.0015 17.3112
rfingers 7.12502
rthumb 7.30374 -12.5427
lclavicle -1.69181e-013 1.21259e-014
lhumerus -1.29228 -6.56982 79.8797
lradius 24.3007
lwrist 1.43952
lhand -34.256 23.633
lfingers 7.12502
lthumb -7.42671 -306.517
rfemur -21.8419 8.71912 26.2603
rtibia 22.6313
rfoot 2.9091 -1.06131
rtoes 21.9462
lfemur 10.2083 3.5491 -26.9019
ltibia 31.1792
lfoot -2.89809 -15.8111
ltoes -3.17824
1869
root -7.68156 17.4796 -27.3134 -182.889 203.822 -179.048
lowerback 3.14123 -7.79277 -0.648362
upperback 4.43737 -10.3847 -2.58399
thorax 2.47134 -5.18745 -2.17378
lowerneck -8.69375 -6.60129 4.39212
upperneck 18.2196 -10.7478 4.13354
head 7.03334 -4.58994 -0.312903
rclavicle -3.37934e-015 6.36111e-015
rhumerus -36.1625 -18.9587 -72.8815
rradius 24.4379
rwrist 16.1007
rhand -18.9733 17.6665
rfingers 7.12502
rthumb 7.33097 -12.1865
lclavicle -3.37934e-015 6.36111e-015
lhumerus 1.81588 -9.2611 74.7189
lradius 25.0246
lwrist 3.16753
lhand -33.5617 22.6139
lfingers 7.12502
lthumb -6.75646 -307.514
rfemur -22.3733 8.99944 26.2296
rtibia 21.9104
rfoot 3.67963 -0.81836
rtoes 21.3079
lfemur 10.1542 3.49313 -27.1321
ltibia 29.8818
lfoot -5.35945 -14.7857
ltoes -4.15988
1870
root -7.66215 17.4646 -27.4942 -182.736 204.077 -178.764
lowerback 4.24478 -7.48946 -2.05794
upperback 3.87709 -10.0413 -2.03703
thorax 1.62924 -5.05399 -0.687256
lowerneck -7.95383 -7.24762 3.51413
upperneck 18.3695 -11.5646 4.56742
head 7.02826 -5.01597 -0.0821706
rclavicle -1.2921e-015 5.56597e-015
rhumerus -36.4977 -18.1701 -72.5184
rradius 24.8808
rwrist 15.6071
rhand -18.9218 17.5739
rfingers 7.12502
rthumb 7.38062 -12.2774
lclavicle -1.2921e-015 5.56597e-015
lhumerus 1.58931 -9.18561 75.7317
lradius 25.4593
lwrist 2.35854
lhand -33.3816 21.2298
lfingers 7.12502
lthumb -6.58258 -308.892
rfemur -22.9496 9.17403 25.9189
rtibia 21.2124
rfoot 4.39592 -0.381877
rtoes 21.8755
lfemur 10.0631 3.42579 -27.6421
ltibia 28.6443
lfoot -7.61953 -13.3838
ltoes -5.98015
1871
root -7.64275 17.447 -27.6774 -182.831 204.294 -178.237
lowerback 6.66684 -7.01864 -4.23051
upperback 2.64646 -9.62575 -1.02484
thorax -0.445268 -4.84147 1.8946
lowerneck -7.18033 -7.94431 2.3216
upperneck 18.9026 -12.3205 4.32113
head 7.12211 -5.47665 -0.0160946
rclavicle -4.87022e-014 4.77083e-015
rhumerus -37.6057 -16.6817 -71.2023
rradius 25.4979
rwrist 14.8369
rhand -19.1683 17.2987
rfingers 7.12502
rthumb 7.14274 -12.5608
lclavicle -4.87022e-014 4.77083e-015
lhumerus 0.488504 -9.23729 77.7674
lradius 25.8764
lwrist 1.49319
lhand -33.931 18.977
lfingers 7.12502
lthumb -7.11292 -311.162
rfemur -23.3606 9.3683 25.3483
rtibia 20.5041
rfoot 4.84419 -0.00398075
rtoes 22.4317
lfemur 10.0446 3.40305 -28.3302
ltibia 27.5067
lfoot -9.59077 -12.1959
ltoes -7.13151
